<svg width="35" height="35" viewBox="0 0 35 35" fill="none" xmlns="http://www.w3.org/2000/svg">
<path d="M10.576 35C9.73516 35 9.02651 34.728 8.45003 34.184C7.87354 33.6401 7.58596 32.972 7.58729 32.1798C7.58862 31.3877 7.8762 30.719 8.45003 30.1738C9.02651 29.6311 9.73516 29.3597 10.576 29.3597C11.4168 29.3597 12.1248 29.6311 12.6999 30.1738C13.2751 30.7165 13.5633 31.3852 13.5647 32.1798C13.566 32.9745 13.2777 33.6426 12.6999 34.184C12.1221 34.7255 11.4141 34.9975 10.576 35ZM29.2732 35C28.4337 35 27.7257 34.728 27.1492 34.184C26.5728 33.6401 26.2845 32.972 26.2845 32.1798C26.2845 31.3877 26.5728 30.719 27.1492 30.1738C27.7257 29.6311 28.4337 29.3597 29.2732 29.3597C30.1127 29.3597 30.8213 29.6311 31.3992 30.1738C31.9743 30.7178 32.2619 31.3864 32.2619 32.1798C32.2619 32.972 31.9743 33.6401 31.3992 34.184C30.8227 34.728 30.114 35 29.2732 35ZM7.73274 5.64031L13.0506 16.199H26.2706C26.5004 16.199 26.7043 16.1444 26.8822 16.0354C27.0616 15.9264 27.215 15.7759 27.3425 15.5842L32.5548 6.65369C32.7075 6.38796 32.7201 6.15295 32.5926 5.94865C32.4638 5.74309 32.2466 5.64031 31.9411 5.64031H7.73274ZM6.75843 3.76021H32.7002C33.565 3.76021 34.2158 4.09361 34.6528 4.76042C35.0912 5.42598 35.1144 6.11222 34.7226 6.81913L29.0281 16.6107C28.7399 17.0682 28.3653 17.4273 27.9044 17.688C27.4435 17.9487 26.9367 18.0791 26.3841 18.0791H12.154L9.73317 22.2717C9.52861 22.5612 9.52197 22.8746 9.71324 23.2118C9.90452 23.5489 10.1921 23.7181 10.576 23.7194H31.2657C31.5499 23.7194 31.787 23.809 31.977 23.9882C32.1669 24.1675 32.2619 24.3912 32.2619 24.6594C32.2619 24.9277 32.1669 25.1508 31.977 25.3288C31.787 25.5067 31.5499 25.597 31.2657 25.5995H10.576C9.41371 25.5995 8.54633 25.137 7.97383 24.212C7.40133 23.287 7.38738 22.3582 7.93199 21.4257L10.9286 16.387L3.60238 1.8801H0.996242C0.713314 1.8801 0.476211 1.79049 0.284935 1.61125C0.093659 1.43201 -0.00131456 1.20828 1.37411e-05 0.940052C0.00134205 0.671824 0.0963156 0.448091 0.284935 0.268855C0.473554 0.089618 0.710657 0 0.996242 0H3.85143C4.16491 0 4.44984 0.0758309 4.7062 0.227493C4.96123 0.379154 5.15915 0.590979 5.29995 0.862968L6.75843 3.76021Z" fill="#F8F8F8"/>
</svg>
