<svg width="21" height="21" viewBox="0 0 21 21" fill="none" xmlns="http://www.w3.org/2000/svg">
<path d="M10.5 0C4.70988 0 0 4.71072 0 10.5C0 16.2893 4.7103 21 10.5 21C16.2897 21 21 16.2893 21 10.5C21 4.71072 16.2897 0 10.5 0ZM10.5 18.9004C5.86782 18.9004 2.09958 15.1322 2.09958 10.5C2.09958 5.86866 5.8674 2.10042 10.5 2.10042C15.1318 2.10042 18.8996 5.86866 18.8996 10.5C18.8992 15.1322 15.1313 18.9004 10.5 18.9004Z" fill="#828282"/>
<path d="M7.73407 7.28125C8.12312 6.86897 8.588 6.53557 9.10327 6.29929C9.62918 6.05736 10.2019 5.93405 10.7807 5.93809C11.5152 5.93809 12.1896 6.11323 12.8039 6.46351C13.4096 6.80601 13.9257 7.28699 14.31 7.86715L15.8069 6.74785C15.2383 5.97135 14.4994 5.33544 13.6468 4.88893C12.7805 4.42945 11.825 4.19971 10.7803 4.19971C9.91961 4.19971 9.11083 4.36631 8.35399 4.69951C7.61436 5.01974 6.94255 5.47802 6.37453 6.04981C5.80751 6.62525 5.35485 7.30308 5.04061 8.04733C4.71357 8.80977 4.55005 9.62737 4.55005 10.5001C4.55005 11.3718 4.71357 12.1895 5.04061 12.9533C5.35504 13.697 5.80768 14.3742 6.37453 14.9492C6.94241 15.5216 7.61422 15.9804 8.35399 16.3012C9.11139 16.6332 9.92017 16.7994 10.7803 16.7997C11.8247 16.7997 12.7802 16.5698 13.6468 16.1101C14.4998 15.6642 15.2389 15.0282 15.8069 14.2511L14.31 13.1335C13.9251 13.7128 13.4091 14.1933 12.8039 14.5359C12.1896 14.8859 11.5152 15.0609 10.7807 15.0609C10.2019 15.0649 9.62918 14.9416 9.10327 14.6997C8.588 14.4634 8.12312 14.13 7.73407 13.7177C7.34431 13.3061 7.03435 12.8227 6.80461 12.2725C6.57487 11.7223 6.46021 11.1305 6.46021 10.5001C6.46021 9.86845 6.57501 9.27737 6.80461 8.72689C7.14901 7.90117 7.34431 7.69453 7.73407 7.28125Z" fill="#828282"/>
</svg>
