<svg width="100" height="100" viewBox="0 0 100 100" fill="none" xmlns="http://www.w3.org/2000/svg">
<circle cx="50" cy="50" r="48.5" stroke="#036446" stroke-width="3"/>
<path d="M75.2787 36.17L56.5287 25.8575C56.2518 25.7052 55.9409 25.6253 55.6249 25.6253C55.3089 25.6253 54.998 25.7052 54.7212 25.8575L35.9712 36.17C35.6772 36.3318 35.432 36.5696 35.2613 36.8585C35.0906 37.1475 35.0005 37.4769 35.0005 37.8125C35.0005 38.1481 35.0906 38.4775 35.2613 38.7664C35.432 39.0553 35.6772 39.2931 35.9712 39.455L53.7499 49.2331V69.3312L48.0574 66.2L46.2499 69.4831L54.7212 74.1425C54.998 74.2948 55.3089 74.3747 55.6249 74.3747C55.9409 74.3747 56.2518 74.2948 56.5287 74.1425L75.2787 63.83C75.5727 63.6682 75.818 63.4304 75.9888 63.1415C76.1597 62.8526 76.2498 62.5231 76.2499 62.1875V37.8125C76.2498 37.4768 76.1597 37.1474 75.9888 36.8584C75.818 36.5695 75.5727 36.3318 75.2787 36.17ZM55.6249 29.6412L70.4843 37.8125L55.6249 45.9837L40.7655 37.8125L55.6249 29.6412ZM72.4999 61.0794L57.4999 69.3294V49.2312L72.4999 40.9812V61.0794Z" fill="#036446"/>
<path d="M38.75 50H23.75V46.25H38.75V50ZM42.5 65H27.5V61.25H42.5V65ZM46.25 57.5H31.25V53.75H46.25V57.5Z" fill="#036446"/>
</svg>
