<svg width="10" height="14" viewBox="0 0 10 14" fill="none" xmlns="http://www.w3.org/2000/svg">
<path d="M5 14C5 14 0 7.609 0 4.9C-9.78424e-09 4.25652 0.129329 3.61935 0.380602 3.02485C0.631876 2.43036 1.00017 1.89018 1.46447 1.43518C1.92876 0.98017 2.47995 0.619238 3.08658 0.37299C3.69321 0.126742 4.34339 0 5 0C5.65661 0 6.30679 0.126742 6.91342 0.37299C7.52005 0.619238 8.07124 0.98017 8.53553 1.43518C8.99983 1.89018 9.36812 2.43036 9.6194 3.02485C9.87067 3.61935 10 4.25652 10 4.9C10 7.609 5 14 5 14ZM5 6.3C5.37888 6.3 5.74224 6.1525 6.01015 5.88995C6.27806 5.6274 6.42857 5.2713 6.42857 4.9C6.42857 4.5287 6.27806 4.1726 6.01015 3.91005C5.74224 3.6475 5.37888 3.5 5 3.5C4.62112 3.5 4.25776 3.6475 3.98985 3.91005C3.72194 4.1726 3.57143 4.5287 3.57143 4.9C3.57143 5.2713 3.72194 5.6274 3.98985 5.88995C4.25776 6.1525 4.62112 6.3 5 6.3Z" fill="#F6F6F6"/>
</svg>
