<svg width="277" height="74" viewBox="0 0 277 74" fill="none" xmlns="http://www.w3.org/2000/svg">
<path d="M29.2543 9.09384L2.00007 56.4784H4.01063L29.2543 12.4785L54.498 56.4784H56.5085L29.2543 9.09384Z" fill="#036446" stroke="#036446" stroke-width="2"/>
<path d="M29.2543 63.6928L16.8141 41.9592H18.6659L29.2543 60.3082L39.7762 41.9592H41.6279L29.2543 63.6928Z" fill="#036446" stroke="#036446"/>
<path d="M29.2543 18.4305L50.887 56.3879H45.702L29.2543 25.8042L12.7404 56.3879H7.55542L29.2543 18.4305Z" fill="#F6F6F6" stroke="#F6F6F6" stroke-width="2"/>
<path d="M29.2541 51.5784L33.7342 43.1616H24.7739L29.2541 51.5784Z" fill="#F6F6F6"/>
<path d="M29.2541 34.7448L33.7342 43.1616H24.7739L29.2541 34.7448Z" fill="#F6F6F6"/>
<path d="M64.43 58L74.22 35.23H77.465L87.255 58H83.24L74.825 36.605H76.42L68.225 58H64.43ZM90.1038 58L99.8938 35.23H103.139L112.929 58H108.914L100.499 36.605H102.094L93.8988 58H90.1038ZM127.127 58.495C124.964 58.495 123.057 58.055 121.407 57.175C119.757 56.2583 118.455 54.975 117.502 53.325C116.585 51.6383 116.127 49.6583 116.127 47.385C116.127 44.855 116.64 42.655 117.667 40.785C118.73 38.8783 120.142 37.4117 121.902 36.385C123.699 35.3217 125.715 34.79 127.952 34.79C130.665 34.79 132.7 35.56 134.057 37.1C135.414 38.64 136.092 40.7483 136.092 43.425C136.092 43.7183 136.074 44.0483 136.037 44.415C136.037 44.745 136.019 45.0567 135.982 45.35H132.737V43.425C132.737 41.445 132.334 39.96 131.527 38.97C130.72 37.9433 129.455 37.43 127.732 37.43C126.119 37.43 124.707 37.8333 123.497 38.64C122.287 39.41 121.352 40.4917 120.692 41.885C120.032 43.2783 119.702 44.9467 119.702 46.89C119.702 49.53 120.454 51.6383 121.957 53.215C123.46 54.755 125.422 55.525 127.842 55.525C129.089 55.525 130.28 55.305 131.417 54.865C132.554 54.425 133.654 53.71 134.717 52.72L136.092 54.755C135.102 55.6717 134.094 56.405 133.067 56.955C132.077 57.505 131.087 57.89 130.097 58.11C129.107 58.3667 128.117 58.495 127.127 58.495ZM118.217 45.35L118.712 42.985H135.487V45.35H118.217ZM142.915 58V35.23H146.655V58H142.915ZM144.84 38.09V35.23H158.425V38.09H144.84ZM172.574 58.44C170.338 58.44 168.339 57.945 166.579 56.955C164.856 55.965 163.481 54.6083 162.454 52.885C161.464 51.125 160.969 49.1267 160.969 46.89C160.969 44.5433 161.501 42.4533 162.564 40.62C163.664 38.7867 165.149 37.3567 167.019 36.33C168.889 35.2667 170.998 34.735 173.344 34.735C175.581 34.735 177.561 35.23 179.284 36.22C181.044 37.21 182.419 38.585 183.409 40.345C184.436 42.0683 184.949 44.0483 184.949 46.285C184.949 48.6317 184.418 50.7217 183.354 52.555C182.291 54.3883 180.824 55.8367 178.954 56.9C177.084 57.9267 174.958 58.44 172.574 58.44ZM173.069 55.8C174.719 55.8 176.131 55.3967 177.304 54.59C178.478 53.7467 179.376 52.6283 179.999 51.235C180.623 49.8417 180.934 48.32 180.934 46.67C180.934 44.7633 180.568 43.1317 179.834 41.775C179.138 40.3817 178.184 39.3183 176.974 38.585C175.764 37.815 174.389 37.43 172.849 37.43C171.236 37.43 169.824 37.8333 168.614 38.64C167.441 39.41 166.543 40.4917 165.919 41.885C165.296 43.2417 164.984 44.7633 164.984 46.45C164.984 48.3567 165.333 50.0067 166.029 51.4C166.763 52.7933 167.734 53.875 168.944 54.645C170.191 55.415 171.566 55.8 173.069 55.8ZM202.305 58.275C200.325 58.275 198.583 57.7983 197.08 56.845C195.613 55.8917 194.495 54.5167 193.725 52.72L194.77 51.51C195.54 52.83 196.511 53.8383 197.685 54.535C198.895 55.2317 200.233 55.58 201.7 55.58C203.35 55.58 204.78 55.195 205.99 54.425C207.236 53.6183 208.208 52.5367 208.905 51.18C209.601 49.7867 209.95 48.1917 209.95 46.395C209.95 44.7083 209.638 43.205 209.015 41.885C208.428 40.5283 207.585 39.465 206.485 38.695C205.385 37.8883 204.065 37.485 202.525 37.485C201.168 37.485 199.811 37.8517 198.455 38.585C197.098 39.2817 195.888 40.4733 194.825 42.16L193.45 41.39C194.66 39.19 196.09 37.5767 197.74 36.55C199.39 35.4867 201.296 34.955 203.46 34.955C205.586 34.955 207.438 35.4317 209.015 36.385C210.591 37.3383 211.801 38.6583 212.645 40.345C213.525 41.995 213.965 43.9017 213.965 46.065C213.965 48.4117 213.433 50.5017 212.37 52.335C211.343 54.1683 209.95 55.6167 208.19 56.68C206.466 57.7433 204.505 58.275 202.305 58.275ZM191.47 73.895V35.23H194.55L195.21 40.015V73.29L191.47 73.895ZM237.631 58L237.906 35.23H241.371V58H237.631ZM220.581 58V35.23H224.266L223.991 58H220.581ZM222.891 58V56.35L237.081 35.23H239.171V36.935L224.981 58H222.891ZM264.042 58V37.815H258.542C256.966 37.815 255.737 38.1817 254.857 38.915C253.977 39.6117 253.537 40.6017 253.537 41.885C253.537 43.2783 254.051 44.3417 255.077 45.075C256.141 45.8083 257.589 46.175 259.422 46.175C260.192 46.175 261.182 46.1383 262.392 46.065C263.602 45.955 264.666 45.8083 265.582 45.625V48.155C264.629 48.3383 263.566 48.4667 262.392 48.54C261.219 48.6133 260.211 48.65 259.367 48.65C256.507 48.65 254.234 48.1183 252.547 47.055C250.861 45.955 250.017 44.305 250.017 42.105C250.017 39.9417 250.824 38.255 252.437 37.045C254.051 35.7983 256.287 35.175 259.147 35.175H267.452V58H264.042ZM248.422 58L256.012 47L258.432 48.1L252.767 58H248.422Z" fill="#F6F6F6"/>
</svg>
