<svg width="53" height="53" viewBox="0 0 53 53" fill="none" xmlns="http://www.w3.org/2000/svg">
<path d="M53 26.5C53 41.1355 41.1355 53 26.5 53C19.5919 53 0 53 0 53C0 53 0 34.2274 0 26.5C0 11.8645 11.8645 0 26.5 0C41.1355 0 53 11.8645 53 26.5Z" fill="#AA6EBF"/>
<path d="M17.3374 20.6364V33H15.6229L9.33842 23.9325H9.22372V33H7.35831V20.6364H9.08487L15.3754 29.7159H15.4901V20.6364H17.3374ZM20.0585 33V20.6364H27.8099V22.2422H21.9239V26.0092H27.4055V27.609H21.9239V31.3942H27.8824V33H20.0585ZM32.7225 33L29.2935 20.6364H31.2555L33.6642 30.2109H33.7789L36.2843 20.6364H38.2282L40.7335 30.217H40.8482L43.2509 20.6364H45.2189L41.7839 33H39.9064L37.3045 23.7393H37.2079L34.606 33H32.7225Z" fill="#F6F6F6"/>
</svg>
