<svg width="53" height="53" viewBox="0 0 53 53" fill="none" xmlns="http://www.w3.org/2000/svg">
<path d="M53 26.5C53 41.1355 41.1355 53 26.5 53C19.5919 53 0 53 0 53C0 53 0 34.2274 0 26.5C0 11.8645 11.8645 0 26.5 0C41.1355 0 53 11.8645 53 26.5Z" fill="#C23A3A"/>
<path d="M10.6562 20.6364L13.6143 25.4719H13.7109L16.669 20.6364H18.8303L14.9787 26.8182L18.8544 33H16.6811L13.7109 28.2308H13.6143L10.6442 33H8.47088L12.413 26.8182L8.49503 20.6364H10.6562ZM20.6806 20.6364H22.5279V29.7159H22.6426L28.9331 20.6364H30.6596V33H28.7942V23.9325H28.6795L22.4011 33H20.6806V20.6364ZM32.771 22.2422V20.6364H42.3396V22.2422H38.482V33H36.6226V22.2422H32.771Z" fill="#F6F6F6"/>
</svg>
