<svg width="27" height="35" viewBox="0 0 27 35" fill="none" xmlns="http://www.w3.org/2000/svg">
<path d="M0 35V3.64903C0 2.60882 0.34725 1.74097 1.04175 1.04548C1.73625 0.35 2.601 0.00150538 3.636 0H23.3662C24.4012 0 25.266 0.348494 25.9605 1.04548C26.655 1.74247 27.0015 2.61032 27 3.64903V35L13.5 29.181L0 35ZM2.25 31.5L13.5 26.6452L24.75 31.5V3.64903C24.75 3.30129 24.606 2.98215 24.318 2.69161C24.03 2.40108 23.712 2.25656 23.364 2.25806H3.636C3.2895 2.25806 2.9715 2.40258 2.682 2.69161C2.3925 2.98064 2.2485 3.29979 2.25 3.64903V31.5Z" fill="#F8F8F8"/>
</svg>
