<svg width="100" height="100" viewBox="0 0 100 100" fill="none" xmlns="http://www.w3.org/2000/svg">
<circle cx="50" cy="50" r="48.5" stroke="#036446" stroke-width="3"/>
<path d="M33 73V32.6916C33 31.3542 33.4501 30.2384 34.3504 29.3442C35.2507 28.45 36.3717 28.0019 37.7133 28H63.2896C64.6312 28 65.7522 28.4481 66.6525 29.3442C67.5528 30.2403 68.0019 31.3561 68 32.6916V73L50.5 65.5184L33 73ZM35.9167 68.5L50.5 62.2581L65.0833 68.5V32.6916C65.0833 32.2445 64.8967 31.8342 64.5233 31.4606C64.15 31.0871 63.7378 30.9013 63.2867 30.9032H37.7133C37.2642 30.9032 36.8519 31.089 36.4767 31.4606C36.1014 31.8323 35.9147 32.2426 35.9167 32.6916V68.5Z" fill="#036446"/>
</svg>
