<svg width="53" height="53" viewBox="0 0 53 53" fill="none" xmlns="http://www.w3.org/2000/svg">
<path d="M53 26.5C53 41.1355 41.1355 53 26.5 53C19.5919 53 0 53 0 53C0 53 0 34.2274 0 26.5C0 11.8645 11.8645 0 26.5 0C41.1355 0 53 11.8645 53 26.5Z" fill="#E17613"/>
<path d="M14.6602 14.0909V25H13.0195V15.4972H7.88459V25H6.24396V14.0909H14.6602ZM17.177 25V14.0909H21.0655C21.9142 14.0909 22.6174 14.2454 23.1749 14.5543C23.7324 14.8633 24.1497 15.2859 24.4267 15.8221C24.7037 16.3548 24.8422 16.9549 24.8422 17.6225C24.8422 18.2937 24.7019 18.8974 24.4213 19.4336C24.1444 19.9663 23.7253 20.3888 23.1642 20.7013C22.6067 21.0103 21.9054 21.1648 21.0602 21.1648H18.3862V19.7692H20.911C21.4473 19.7692 21.8823 19.6768 22.2161 19.4922C22.5499 19.304 22.7949 19.0483 22.9512 18.7251C23.1074 18.402 23.1855 18.0344 23.1855 17.6225C23.1855 17.2106 23.1074 16.8448 22.9512 16.5252C22.7949 16.2056 22.5481 15.9553 22.2108 15.7741C21.877 15.593 21.4366 15.5025 20.8897 15.5025H18.823V25H17.177ZM26.7718 25V14.0909H33.6112V15.5078H28.4177V18.8317H33.2544V20.2433H28.4177V23.5831H33.6752V25H26.7718ZM34.9842 27.6367V23.6044H35.7033C35.9483 23.3984 36.1774 23.1055 36.3904 22.7255C36.6035 22.3455 36.7846 21.8324 36.9338 21.1861C37.0829 20.5398 37.1859 19.7106 37.2427 18.6985L37.4984 14.0909H44.226V23.6044H45.4618V27.6207H43.8851V25H36.5609V27.6367H34.9842ZM37.6422 23.6044H42.6493V15.5078H38.9899L38.8194 18.6985C38.7733 19.4691 38.6969 20.1616 38.5904 20.7759C38.4874 21.3903 38.3542 21.9336 38.1909 22.4059C38.0311 22.8746 37.8482 23.2741 37.6422 23.6044ZM8.40865 41.1293C7.79927 41.1293 7.25607 41.0246 6.77903 40.8153C6.30507 40.6061 5.92806 40.3152 5.64799 39.9428C5.371 39.5674 5.2202 39.1319 5.19558 38.6364H6.35893C6.38355 38.9411 6.48819 39.2042 6.67285 39.4258C6.85751 39.6443 7.09911 39.8136 7.39764 39.9336C7.69617 40.0536 8.02702 40.1136 8.39018 40.1136C8.79643 40.1136 9.15652 40.0429 9.47044 39.9013C9.78436 39.7597 10.0306 39.5627 10.2091 39.3104C10.3876 39.058 10.4768 38.7656 10.4768 38.4332C10.4768 38.0855 10.3907 37.7792 10.2183 37.5146C10.046 37.2468 9.79359 37.0375 9.4612 36.8867C9.12882 36.7359 8.72257 36.6605 8.24245 36.6605H7.48535V35.6449H8.24245C8.61793 35.6449 8.94724 35.5772 9.23038 35.4418C9.5166 35.3063 9.73973 35.1155 9.89977 34.8693C10.0629 34.6231 10.1444 34.3338 10.1444 34.0014C10.1444 33.6813 10.0737 33.4028 9.93208 33.1658C9.79051 32.9289 9.59047 32.7442 9.33194 32.6119C9.0765 32.4795 8.77489 32.4134 8.42711 32.4134C8.10088 32.4134 7.79312 32.4734 7.50382 32.5934C7.2176 32.7103 6.98369 32.8812 6.80211 33.1058C6.62053 33.3274 6.52205 33.5952 6.50666 33.9091H5.3987C5.41717 33.4136 5.56644 32.9796 5.8465 32.6072C6.12657 32.2318 6.49281 31.9394 6.94522 31.7301C7.40072 31.5208 7.90083 31.4162 8.44558 31.4162C9.03033 31.4162 9.53199 31.5347 9.95055 31.7717C10.3691 32.0056 10.6907 32.3149 10.9154 32.6996C11.1401 33.0843 11.2524 33.4998 11.2524 33.946C11.2524 34.4785 11.1124 34.9324 10.8323 35.3079C10.5553 35.6834 10.1783 35.9434 9.70126 36.0881V36.1619C10.2983 36.2604 10.7646 36.5143 11.1001 36.9237C11.4355 37.3299 11.6032 37.8331 11.6032 38.4332C11.6032 38.9472 11.4632 39.4089 11.1832 39.8182C10.9062 40.2244 10.5276 40.5445 10.0475 40.7784C9.56738 41.0123 9.0211 41.1293 8.40865 41.1293ZM14.0454 41H12.8451L16.3167 31.5455H17.4985L20.9701 41H19.7698L16.9445 33.0412H16.8706L14.0454 41ZM14.4885 37.3068H19.3266V38.3224H14.4885V37.3068ZM28.001 41L24.751 36.6605H23.5876V41H22.4427V31.5455H23.5876V35.6449H24.0862L27.8717 31.5455H29.2382L25.4157 35.7003L29.3675 41H28.001ZM31.2348 41H30.0345L33.5061 31.5455H34.6879L38.1595 41H36.9593L34.134 33.0412H34.0601L31.2348 41ZM31.678 37.3068H36.5161V38.3224H31.678V37.3068ZM42.6606 41.1293C42.0512 41.1293 41.508 41.0246 41.031 40.8153C40.557 40.6061 40.18 40.3152 39.8999 39.9428C39.623 39.5674 39.4722 39.1319 39.4475 38.6364H40.6109C40.6355 38.9411 40.7401 39.2042 40.9248 39.4258C41.1095 39.6443 41.3511 39.8136 41.6496 39.9336C41.9481 40.0536 42.279 40.1136 42.6421 40.1136C43.0484 40.1136 43.4085 40.0429 43.7224 39.9013C44.0363 39.7597 44.2825 39.5627 44.461 39.3104C44.6395 39.058 44.7288 38.7656 44.7288 38.4332C44.7288 38.0855 44.6426 37.7792 44.4703 37.5146C44.2979 37.2468 44.0455 37.0375 43.7132 36.8867C43.3808 36.7359 42.9745 36.6605 42.4944 36.6605H41.7373V35.6449H42.4944C42.8699 35.6449 43.1992 35.5772 43.4823 35.4418C43.7686 35.3063 43.9917 35.1155 44.1517 34.8693C44.3148 34.6231 44.3964 34.3338 44.3964 34.0014C44.3964 33.6813 44.3256 33.4028 44.184 33.1658C44.0425 32.9289 43.8424 32.7442 43.5839 32.6119C43.3285 32.4795 43.0268 32.4134 42.6791 32.4134C42.3528 32.4134 42.0451 32.4734 41.7558 32.5934C41.4695 32.7103 41.2356 32.8812 41.0541 33.1058C40.8725 33.3274 40.774 33.5952 40.7586 33.9091H39.6507C39.6691 33.4136 39.8184 32.9796 40.0985 32.6072C40.3785 32.2318 40.7448 31.9394 41.1972 31.7301C41.6527 31.5208 42.1528 31.4162 42.6975 31.4162C43.2823 31.4162 43.7839 31.5347 44.2025 31.7717C44.6211 32.0056 44.9427 32.3149 45.1673 32.6996C45.392 33.0843 45.5044 33.4998 45.5044 33.946C45.5044 34.4785 45.3643 34.9324 45.0843 35.3079C44.8073 35.6834 44.4303 35.9434 43.9532 36.0881V36.1619C44.5503 36.2604 45.0165 36.5143 45.352 36.9237C45.6875 37.3299 45.8552 37.8331 45.8552 38.4332C45.8552 38.9472 45.7152 39.4089 45.4351 39.8182C45.1581 40.2244 44.7796 40.5445 44.2994 40.7784C43.8193 41.0123 43.2731 41.1293 42.6606 41.1293Z" fill="#F6F6F6"/>
</svg>
