<svg width="31" height="21" viewBox="0 0 31 21" fill="none" xmlns="http://www.w3.org/2000/svg">
<path opacity="0.5" d="M20.5736 21C18.5112 21.0003 16.495 20.3848 14.7799 19.2313C13.0649 18.0778 11.7281 16.4381 10.9385 14.5196C10.149 12.6011 9.94217 10.4899 10.3442 8.45309C10.7463 6.41623 11.7392 4.54516 13.1973 3.07649C14.6555 1.60782 16.5134 0.607511 18.5362 0.202064C20.5589 -0.203384 22.6557 0.00423713 24.5612 0.798672C26.4668 1.59311 28.0956 2.93867 29.2417 4.66522C30.3878 6.39176 30.9997 8.42174 31 10.4984V10.5C30.9971 13.2836 29.8978 15.9524 27.9431 17.9209C25.9885 19.8893 23.3381 20.9967 20.5736 21Z" fill="#828282"/>
<path d="M10.4279 21C8.36548 21 6.34934 20.3842 4.63448 19.2304C2.91962 18.0767 1.58305 16.4368 0.793783 14.5182C0.00451826 12.5996 -0.201989 10.4884 0.200374 8.45155C0.602738 6.41475 1.5959 4.54383 3.05427 3.07538C4.51264 1.60693 6.37072 0.606904 8.39354 0.201759C10.4164 -0.203386 12.5131 0.00454977 14.4185 0.79927C16.324 1.59399 17.9526 2.9398 19.0984 4.66652C20.2443 6.39323 20.8558 8.4233 20.8558 10.5C20.853 13.2839 19.7534 15.9529 17.7984 17.9214C15.8434 19.8899 13.1927 20.9971 10.4279 21Z" fill="#828282"/>
</svg>
