<svg width="35" height="30" viewBox="0 0 35 30" fill="none" xmlns="http://www.w3.org/2000/svg">
<path d="M32.0172 0.264871C32.0172 0.264871 35.2547 -1.0337 34.9839 2.11972C34.8947 3.41829 34.0856 7.96369 33.4556 12.8794L31.2972 27.4422C31.2972 27.4422 31.1172 29.5756 29.498 29.9467C27.8797 30.317 25.4513 28.6482 25.0013 28.277C24.6413 27.9985 18.2562 23.8242 16.0079 21.7842C15.3779 21.2271 14.6579 20.1145 16.0979 18.8159L25.5413 9.53997C26.6205 8.42569 27.6997 5.82856 23.203 8.98283L10.6112 17.7942C10.6112 17.7942 9.172 18.7225 6.47447 17.8877L0.627751 16.0319C0.627751 16.0319 -1.5306 14.6408 2.15693 13.2497C11.1512 8.89026 22.2138 4.43828 32.0164 0.264014" fill="#F8F8F8"/>
</svg>
