<svg width="65" height="21" viewBox="0 0 65 21" fill="none" xmlns="http://www.w3.org/2000/svg">
<path d="M60.1846 20.6969L59.5752 17.6524H52.7665L51.6831 20.6753L46.2258 20.6861C49.734 12.2626 52.3376 6.02307 54.0367 1.9674C54.4808 0.906573 55.269 0.365336 56.4308 0.373455C57.3192 0.380671 58.769 0.381572 60.7804 0.37616L65 20.6888L60.1846 20.6969ZM54.2967 13.4822H58.6869L57.0483 5.85077L54.2967 13.4822ZM19.1262 0.370748L24.6133 0.37616L16.1308 20.6996L10.576 20.6942C9.17922 15.326 7.79977 9.95328 6.43771 4.57616C6.16687 3.50451 5.63062 2.7549 4.59875 2.40039C3.67611 2.08466 2.14319 1.59665 0 0.936339V0.37616H8.76687C10.2835 0.37616 11.1692 1.10954 11.4535 2.61418C11.7406 4.12242 12.4628 7.95979 13.6202 14.1263L19.1262 0.370748ZM32.1533 0.37616L27.8173 20.6969L22.5929 20.6888L26.9208 0.370748L32.1533 0.37616ZM42.7429 0C44.3056 0 46.2746 0.487113 47.4067 0.936339L46.4912 5.14717C45.4675 4.73583 43.7829 4.18106 42.3665 4.2C40.3081 4.23518 39.0352 5.09845 39.0352 5.92655C39.0352 7.27423 41.2452 7.95348 43.5202 9.42564C46.1148 11.1035 46.4587 12.6108 46.4262 14.2508C46.391 17.647 43.5202 21 37.4644 21C34.7019 20.9594 33.7052 20.7294 31.4519 19.9284L32.4052 15.5335C34.6992 16.4915 35.6715 16.7973 37.6323 16.7973C39.4279 16.7973 40.969 16.072 40.9825 14.8082C40.9933 13.9098 40.4408 13.4633 38.4258 12.3537C36.4108 11.2442 33.5833 9.70438 33.6212 6.61121C33.6673 2.65477 37.4183 0 42.7429 0Z" fill="#828282"/>
</svg>
