<svg width="50" height="30" viewBox="0 0 50 30" fill="none" xmlns="http://www.w3.org/2000/svg">
<path fill-rule="evenodd" clip-rule="evenodd" d="M48.8531 2.03143C49.199 0.861428 48.8531 0 47.1969 0H41.7283C40.3367 0 39.695 0.743571 39.3471 1.56429C39.3471 1.56429 36.5659 8.41286 32.6264 12.8614C31.3514 14.1514 30.7723 14.5607 30.0765 14.5607C29.7285 14.5607 29.2056 14.1514 29.2056 12.9793V2.03143C29.2056 0.625714 28.8223 0 27.664 0H19.0642C18.1955 0 17.6725 0.651428 17.6725 1.27071C17.6725 2.60143 19.6433 2.91 19.8454 6.65571V14.7943C19.8454 16.5793 19.5267 16.9029 18.8309 16.9029C16.9767 16.9029 12.4664 10.0221 9.78938 2.14929C9.27064 0.617142 8.74565 0 7.34776 0H1.87496C0.312493 0 0 0.743571 0 1.56429C0 3.02571 1.85413 10.2857 8.63524 19.8879C13.156 26.445 19.5204 30 25.3182 30C28.7952 30 29.2244 29.2114 29.2244 27.8507V22.8943C29.2244 21.315 29.5535 21 30.6556 21C31.4681 21 32.8576 21.4114 36.1034 24.5721C39.8117 28.32 40.4221 30 42.5095 30H47.9782C49.5406 30 50.3239 29.2114 49.874 27.6514C49.3781 26.1 47.6073 23.8479 45.2595 21.1757C43.9845 19.6543 42.072 18.015 41.4908 17.1943C40.6804 16.1421 40.9116 15.6729 41.4908 14.7364C41.4908 14.7364 48.1573 5.25214 48.8511 2.03143" fill="#F8F8F8"/>
</svg>
