<svg width="45" height="30" viewBox="0 0 45 30" fill="none" xmlns="http://www.w3.org/2000/svg">
<path d="M22.6449 0H22.8952C25.2072 0.00800783 36.922 0.0880865 40.0806 0.894208C41.0355 1.14023 41.9056 1.61978 42.6041 2.28492C43.3025 2.95007 43.8047 3.77752 44.0606 4.68458C44.3447 5.69891 44.5443 7.04155 44.6794 8.42691L44.7075 8.70451L44.7694 9.39852L44.7919 9.67613C44.9747 12.1158 44.9972 14.4007 45 14.8999V15.1001C44.9972 15.6179 44.9719 18.0577 44.7694 20.5988L44.7469 20.8791L44.7215 21.1567C44.5809 22.6835 44.3728 24.1997 44.0606 25.3154C43.8047 26.2225 43.3025 27.0499 42.6041 27.7151C41.9056 28.3802 41.0355 28.8598 40.0806 29.1058C36.8179 29.9386 24.4168 29.9973 22.6983 30H22.2989C21.4298 30 17.8352 29.984 14.0662 29.8612L13.588 29.8452L13.3433 29.8345L12.8624 29.8158L12.3814 29.7971C9.25933 29.6663 6.28633 29.4555 4.91656 29.1031C3.96201 28.8573 3.09211 28.3782 2.39373 27.7135C1.69535 27.0489 1.19292 26.222 0.936621 25.3154C0.624414 24.2023 0.416276 22.6835 0.275642 21.1567L0.253141 20.8764L0.230639 20.5988C0.0910278 18.7901 0.0141065 16.9776 0 15.1642L0 14.8358C0.00562535 14.2619 0.0281268 12.2787 0.180011 10.0899L0.1997 9.81493L0.208138 9.67613L0.230639 9.39852L0.292518 8.70451L0.320645 8.42691C0.455654 7.04155 0.655353 5.69624 0.939434 4.68458C1.1953 3.77752 1.69754 2.95007 2.39595 2.28492C3.09436 1.61978 3.96449 1.14023 4.91937 0.894208C6.28914 0.547202 9.26214 0.333659 12.3842 0.200196L12.8624 0.181511L13.3461 0.165496L13.588 0.157488L14.069 0.138803C16.7459 0.0571321 19.4238 0.0117495 22.102 0.0026694L22.6449 0ZM18.0011 8.56838V21.429L29.6934 15.0013L18.0011 8.56838Z" fill="#F8F8F8"/>
</svg>
